<svg width="430" height="1080" viewBox="0 0 430 1080" fill="none" xmlns="http://www.w3.org/2000/svg">
<path fill-rule="evenodd" clip-rule="evenodd" d="M413.286 1080L352.509 1064.57C303.887 1056.86 206.643 1026 170.177 1002.86C133.71 979.714 170.177 948.857 218.799 925.714C267.421 902.571 340.353 871.714 388.975 848.571C425.442 825.429 437.597 794.571 425.442 771.429C413.286 748.286 352.509 717.429 328.198 694.286C303.887 671.143 303.887 640.286 267.421 617.143C243.11 594 170.177 563.143 158.021 540C133.71 516.857 170.177 486 230.954 462.857C291.731 439.714 376.82 408.857 364.664 385.714C352.509 362.571 255.265 331.714 255.265 308.571C255.265 285.429 352.509 254.571 401.131 231.429C437.597 208.286 425.442 177.429 352.509 154.286C267.42 131.143 133.71 100.286 121.555 77.1428C97.2438 54 206.643 23.1428 255.265 15.4286L303.887 -1.32833e-05L-4.72083e-05 0L-4.65339e-05 15.4286C-4.61967e-05 23.1428 -4.48479e-05 54 -4.38363e-05 77.1428C-4.28247e-05 100.286 -4.14759e-05 131.143 -4.04643e-05 154.286C-3.94527e-05 177.429 -3.81038e-05 208.286 -3.70922e-05 231.429C-3.60806e-05 254.571 -3.47318e-05 285.429 -3.37202e-05 308.571C-3.27086e-05 331.714 -3.13598e-05 362.571 -3.03482e-05 385.714C-2.93366e-05 408.857 -2.79878e-05 439.714 -2.69762e-05 462.857C-2.59646e-05 486 -2.46158e-05 516.857 -2.36041e-05 540C-2.25925e-05 563.143 -2.12437e-05 594 -2.02321e-05 617.143C-1.92205e-05 640.286 -1.78717e-05 671.143 -1.68601e-05 694.286C-1.58485e-05 717.429 -1.44997e-05 748.286 -1.34881e-05 771.429C-1.24765e-05 794.571 -1.11277e-05 825.429 -1.01161e-05 848.571C-9.10446e-06 871.714 -7.75565e-06 902.571 -6.74404e-06 925.714C-5.73244e-06 948.857 -4.38363e-06 979.714 -3.37202e-06 1002.86C-2.36041e-06 1026 -1.01161e-06 1056.86 -6.74404e-07 1064.57L0 1080L413.286 1080Z" fill="#0A1A47"/>
</svg>
