<svg width="61" height="49" viewBox="0 0 61 49" fill="none" xmlns="http://www.w3.org/2000/svg">
<path d="M51.6728 4.74568C47.7242 2.89821 43.5021 1.55554 39.088 0.791016C38.5459 1.77111 37.9126 3.08936 37.4759 4.13802C32.7837 3.43236 28.1346 3.43236 23.5286 4.13802C23.092 3.08936 22.4443 1.77111 21.8974 0.791016C17.4785 1.55554 13.2516 2.90314 9.30299 4.75546C1.33855 16.7908 -0.820478 28.5271 0.259038 40.0969C5.54147 44.0417 10.6608 46.438 15.6937 48.0061C16.9364 46.2959 18.0446 44.4778 18.9994 42.5618C17.181 41.8708 15.4394 41.0182 13.7938 40.0283C14.2304 39.7049 14.6574 39.3667 15.07 39.0188C25.1071 43.7134 36.0126 43.7134 45.9298 39.0188C46.3472 39.3667 46.7742 39.7049 47.206 40.0283C45.5555 41.023 43.8091 41.8757 41.9908 42.5667C42.9455 44.4778 44.049 46.3008 45.2965 48.011C50.3342 46.4429 55.4583 44.0466 60.7407 40.0969C62.0074 26.6846 58.5769 15.056 51.6728 4.74568ZM20.3668 32.9816C17.3538 32.9816 14.8829 30.1687 14.8829 26.7434C14.8829 23.318 17.301 20.5003 20.3668 20.5003C23.4327 20.5003 25.9035 23.3131 25.8508 26.7434C25.8555 30.1687 23.4327 32.9816 20.3668 32.9816ZM40.633 32.9816C37.6199 32.9816 35.149 30.1687 35.149 26.7434C35.149 23.318 37.5671 20.5003 40.633 20.5003C43.6988 20.5003 46.1697 23.3131 46.1169 26.7434C46.1169 30.1687 43.6988 32.9816 40.633 32.9816Z" fill="white"/>
</svg>
