<svg width="47" height="47" viewBox="0 0 47 47" fill="none" xmlns="http://www.w3.org/2000/svg">
<path d="M23.5 4.23588C29.7745 4.23588 30.5187 4.25938 32.9979 4.37296C39.3664 4.66279 42.3411 7.6845 42.631 14.006C42.7445 16.4833 42.7661 17.2275 42.7661 23.502C42.7661 29.7784 42.7426 30.5206 42.631 32.9979C42.3392 39.3135 39.3723 42.3411 32.9979 42.631C30.5187 42.7445 29.7784 42.768 23.5 42.768C17.2255 42.768 16.4813 42.7445 14.004 42.631C7.61988 42.3392 4.66083 39.3038 4.371 32.996C4.25742 30.5187 4.23392 29.7765 4.23392 23.5C4.23392 17.2255 4.25938 16.4833 4.371 14.004C4.66279 7.6845 7.62967 4.66083 14.004 4.371C16.4833 4.25938 17.2255 4.23588 23.5 4.23588ZM23.5 0C17.1178 0 16.3188 0.0274167 13.8121 0.141C5.27771 0.532667 0.534625 5.26792 0.142958 13.8102C0.0274167 16.3188 0 17.1178 0 23.5C0 29.8822 0.0274167 30.6832 0.141 33.1898C0.532667 41.7243 5.26792 46.4673 13.8102 46.859C16.3188 46.9726 17.1178 47 23.5 47C29.8822 47 30.6832 46.9726 33.1898 46.859C41.7164 46.4673 46.4713 41.7321 46.857 33.1898C46.9726 30.6832 47 29.8822 47 23.5C47 17.1178 46.9726 16.3188 46.859 13.8121C46.4752 5.28554 41.734 0.534625 33.1918 0.142958C30.6832 0.0274167 29.8822 0 23.5 0ZM23.5 11.4327C16.8358 11.4327 11.4327 16.8358 11.4327 23.5C11.4327 30.1642 16.8358 35.5692 23.5 35.5692C30.1642 35.5692 35.5673 30.1662 35.5673 23.5C35.5673 16.8358 30.1642 11.4327 23.5 11.4327ZM23.5 31.3333C19.174 31.3333 15.6667 27.8279 15.6667 23.5C15.6667 19.174 19.174 15.6667 23.5 15.6667C27.826 15.6667 31.3333 19.174 31.3333 23.5C31.3333 27.8279 27.826 31.3333 23.5 31.3333ZM36.0451 8.13688C34.4863 8.13688 33.2231 9.4 33.2231 10.9569C33.2231 12.5138 34.4863 13.7769 36.0451 13.7769C37.602 13.7769 38.8631 12.5138 38.8631 10.9569C38.8631 9.4 37.602 8.13688 36.0451 8.13688Z" fill="white"/>
</svg>
