<svg width="62" height="43" viewBox="0 0 62 43" fill="none" xmlns="http://www.w3.org/2000/svg">
<path d="M33.5651 42.8651C32.0758 42.5683 30.1308 41.705 29.7947 41.1926C29.6468 40.9682 29.6507 40.9114 29.8555 40.3411C30.3532 38.9498 31.2449 37.8573 32.597 36.9833C33.5288 36.3808 33.6199 36.4082 33.5915 37.2861C33.5504 38.555 34.1138 39.5495 35.269 40.2471C36.6123 41.0564 39.3518 41.0594 41.7622 40.252C43.4249 39.6955 44.6732 39.0057 46.8572 37.436C48.3955 36.3308 49.2607 35.786 50.2865 35.2745C51.9287 34.4584 52.5313 34.2516 54.0235 33.9969C55.2385 33.7892 55.8901 33.7558 56.1027 33.8901C56.282 34.0037 56.1585 34.0645 55.5775 34.1487C53.1731 34.4976 51.3261 35.4911 48.6355 37.8818C48.1584 38.3061 47.5411 38.843 47.2638 39.0743C44.8545 41.0858 41.8621 42.4007 38.6268 42.8681C37.3971 43.0454 34.4636 43.0435 33.5651 42.8651ZM53.4445 42.5124C52.9712 42.4664 52.2217 42.339 51.7788 42.2292C50.8803 42.0078 49.001 41.126 48.4758 40.6811L48.1349 40.3931L48.8599 39.6455C49.6369 38.844 49.877 38.748 50.1983 39.1066C50.4707 39.4103 51.7357 40.2471 52.2726 40.4773C53.7276 41.1034 54.438 41.2543 55.944 41.2563C56.9208 41.2573 57.4695 41.2063 58.1133 41.0564C58.9824 40.8536 60.1895 40.3549 60.7137 39.9816C60.8695 39.8708 61.0968 39.7797 61.2193 39.7797H61.4417L61.2124 40.0237C60.8293 40.4313 59.5879 41.2426 58.7354 41.6414C57.738 42.1087 56.7239 42.3958 55.796 42.4722C55.406 42.5046 54.9112 42.5457 54.6957 42.5634C54.4801 42.582 53.9167 42.5594 53.4445 42.5124ZM2.91264 42.4605C1.80251 42.239 0.194644 41.6267 0.0319957 41.3641C-0.106158 41.1397 0.196604 41.1661 1.06668 41.4562C2.42861 41.9108 3.6573 41.8795 5.42586 41.3455C6.20481 41.1103 7.50012 40.5234 8.27907 40.0531C8.61612 39.8483 8.91692 39.6817 8.94632 39.6817C9.06978 39.6817 11.0872 38.1914 12.4531 37.0921C13.2614 36.4415 14.3882 35.5342 14.9584 35.0766C17.1787 33.2904 18.8424 32.1529 20.3641 31.3788C21.5291 30.786 21.9347 30.6175 23.1457 30.2226C25.1181 29.5789 25.7197 29.4417 27.3903 29.2516C28.0007 29.1821 28.5386 29.0861 28.5866 29.038C28.6542 28.9704 28.714 24.1243 28.6856 20.9046C28.6807 20.3256 28.5327 20.2011 28.1085 20.4206C27.7381 20.6126 26.4389 20.8694 25.8402 20.8694C25.0603 20.8694 23.8875 20.5882 23.2467 20.2491C22.4863 19.8455 21.3233 18.6952 20.9872 18.0161C20.4003 16.8267 20.2553 16.2182 20.2553 14.9484C20.2553 13.8833 20.5228 11.5171 20.851 9.66619C20.9696 8.99894 20.8981 8.55019 20.6649 8.49924C20.5747 8.47964 20.2622 8.54235 19.9702 8.64033C19.6792 8.73831 19.4038 8.81768 19.3578 8.81768C19.1707 8.81768 19.299 8.462 19.6557 7.99366C20.3063 7.14024 21.921 4.67797 21.921 4.53982C21.921 4.46731 21.9925 4.40852 22.0797 4.40852C22.2208 4.40852 22.2316 4.54178 22.1767 5.60879C22.0709 7.66052 21.8975 12.8192 21.8877 14.2066C21.8798 15.2217 21.919 15.6646 22.0542 16.1114C22.4824 17.5204 23.6729 18.5521 25.2739 18.899C26.2674 19.1145 27.552 18.6501 28.1555 17.8584C28.7601 17.0638 28.7885 16.7218 28.7581 10.3962C28.7268 3.95683 28.7875 4.35072 27.9027 4.82788C27.0366 5.29525 27.0199 5.20609 27.7391 3.98231C28.2672 3.08382 29.2901 1.02524 29.4126 0.611756C29.5371 0.197295 29.7311 0.392278 30.1965 1.3956C30.6256 2.32349 31.5927 4.16651 31.917 4.67308C32.1306 5.00915 31.9601 5.05128 31.4183 4.79751C30.5296 4.38109 30.5962 3.91274 30.5668 10.8488L30.5414 16.9246L30.8167 17.4498C31.1498 18.0887 31.7328 18.5541 32.4853 18.7833C33.3035 19.0332 33.8933 18.993 34.8133 18.6246C36.041 18.1327 36.7416 17.3705 37.206 16.0203C37.3657 15.5539 37.402 15.1972 37.401 14.0685C37.401 13.3091 37.3599 12.2029 37.3109 11.6101C37.2619 11.0174 37.1913 9.19882 37.1551 7.56842C37.0796 4.21844 37.0894 4.17631 37.7253 5.21883C37.9301 5.5549 38.2495 6.04971 38.4347 6.31916C38.6209 6.58861 38.9599 7.08635 39.1892 7.42634C39.4185 7.76536 39.7085 8.17198 39.8339 8.33071C40.1504 8.73047 40.0397 8.83629 39.4821 8.66679C38.9452 8.50316 38.5161 8.48356 38.4337 8.61779C38.4014 8.66875 38.4416 9.27525 38.5229 9.96504C38.9148 13.3023 39.0706 14.7808 39.0687 15.158C39.0667 15.8018 38.7081 17.1862 38.3691 17.8564C37.9781 18.6315 36.9386 19.7122 36.1772 20.1365C35.4394 20.547 34.2235 20.8694 33.4103 20.8694C32.741 20.8694 31.5692 20.6391 31.1606 20.4265C30.6286 20.1502 30.6413 20.0453 30.6413 24.6994V28.9979L30.8618 29.0459C30.9833 29.0714 31.5888 29.1419 32.209 29.2027C35.5933 29.5319 37.9184 30.4666 39.4841 32.1254C40.7343 33.4511 41.1782 34.8758 40.7735 36.2593C40.4943 37.2107 39.8408 37.6153 39.3989 37.1097C39.293 36.9882 39.054 36.6551 38.8678 36.369C38.4435 35.7194 37.6146 35.1472 36.6916 34.8669C35.7549 34.5818 34.1892 34.6455 33.0418 35.0139C31.1381 35.6263 29.2294 37.3439 28.5631 39.0449C28.4622 39.3035 28.3485 39.4368 28.23 39.4368C27.9694 39.4368 27.8165 38.8234 27.8077 37.7397C27.7842 34.8944 29.9006 32.6731 32.9684 32.3253C33.9286 32.2156 35.3042 32.3469 36.0861 32.6212C37.0796 32.971 36.7132 32.4831 35.6187 31.999C32.161 30.4725 27.5676 30.5979 23.1702 32.341C22.2012 32.7241 19.8438 33.9038 19.297 34.2781C19.1501 34.378 18.6994 34.6759 18.2957 34.9394C17.3854 35.5342 16.3517 36.3014 14.785 37.5467C13.1252 38.8646 11.5124 40.059 10.7502 40.5322C9.41467 41.3621 7.85971 42.0372 6.69667 42.292C6.01276 42.4419 3.40255 42.5585 2.91264 42.4605ZM13.6906 27.6183C13.3251 27.4733 12.8264 26.951 12.7588 26.6434C12.6578 26.1888 12.8754 25.6126 13.2692 25.2873C13.9257 24.7465 14.5038 24.7719 15.1799 25.3716C15.5806 25.7282 15.6012 25.7723 15.6012 26.2907C15.6012 26.7786 15.5659 26.8717 15.2622 27.1842C14.7997 27.6624 14.2108 27.825 13.6906 27.6183ZM50.1053 23.9489C49.7711 23.6559 49.8064 23.3159 50.1954 23.0602C50.4306 22.9064 50.459 22.9074 50.701 23.0886C51.1635 23.4335 51.187 23.5609 50.8509 23.897C50.6834 24.0635 50.5099 24.1997 50.4658 24.1978C50.4208 24.1958 50.2591 24.0841 50.1053 23.9489ZM48.6698 6.68463C47.7518 6.23587 47.4843 5.58724 47.8899 4.79261C48.178 4.22824 48.5934 3.99602 49.2342 4.04404C50.4364 4.13222 50.9567 5.49808 50.1102 6.34463C49.829 6.62682 49.68 6.6954 49.292 6.72284C49.0304 6.74146 48.7512 6.7248 48.6698 6.68463ZM9.62337 1.69935C9.51069 1.48967 9.30101 1.28684 9.11779 1.21042C8.68275 1.02915 8.6367 0.90178 8.9571 0.764606C9.31473 0.612735 9.67334 0.294297 9.67334 0.129689C9.67334 -0.104486 9.91438 -0.00552523 10.0878 0.298216C10.1809 0.461845 10.3925 0.64311 10.5571 0.700919C10.9177 0.826335 10.904 0.897861 10.4631 1.19376C10.2534 1.33486 10.0956 1.54062 10.0437 1.73854C9.99864 1.91393 9.92907 2.05698 9.8889 2.05698C9.84873 2.05698 9.72919 1.89629 9.62337 1.69935Z" fill="white"/>
</svg>
